<?xml version="1.0" encoding="UTF-8"?>
<svg width="64px" height="27px" viewBox="0 0 64 27" version="1.1" xmlns="http://www.w3.org/2000/svg" xmlns:xlink="http://www.w3.org/1999/xlink">
    <defs>
        <path d="M16.9595808,22.6517302 C16.6869173,19.2990254 19.5761053,15.0907409 23.8737958,15.0907409 C25.7327662,15.0907409 27.2747072,15.8341671 27.4571207,17.3219646 C27.6857114,19.180935 26.0950278,19.5533232 25.4998549,19.5533232 C24.9793485,19.5533232 24.1424878,19.4042599 24.0837536,18.9206143 C24.0196186,18.4003781 25.2087494,18.6978295 25.0631966,17.5073485 C24.9716523,16.7640574 24.1960911,16.5040068 23.4521249,16.5040068 C20.7743865,16.5040068 19.2972557,20.2226228 19.5799899,22.5285131 C19.7081249,23.5693907 20.2448338,24.6110785 21.2121249,24.6110785 C21.9929519,24.6110785 23.1203781,23.4952641 23.5515004,21.8586734 C23.823973,20.7428591 24.8853738,19.9995679 25.6662008,19.9995679 C26.0753148,19.9995679 26.358184,20.1852219 26.4085468,20.5942008 C26.4267747,20.7428591 26.4128675,20.9290532 26.3658802,21.151973 C26.2764962,21.6358886 25.9043781,23.2442599 25.9204456,23.5780321 C25.9347578,23.8684624 26.1019139,24.2669097 26.607973,24.2669097 C27.0091943,24.2669097 28.4843016,23.4738089 29.8501305,22.2535172 C30.2797332,20.0435755 30.8100411,17.313688 30.8500928,17.0984101 C31.0164388,16.2033553 31.3392743,15.2817013 33.1612489,15.2817013 C33.5336371,15.2817013 33.8170464,15.4673553 33.8714599,15.91387 C33.8895527,16.0625283 33.8753755,16.2487224 33.8281181,16.4715072 L33.3197637,18.7668658 C34.9186835,16.6477097 37.4041519,15.0855156 38.8919494,15.0855156 C39.5243882,15.0855156 40.0114093,15.4198278 40.0943122,16.0896675 C40.1396793,16.4615156 40.0307173,17.0934143 39.7836287,17.8001148 C39.2540759,19.2505114 38.658903,21.4285367 38.2643713,23.3041148 C38.1807932,23.702562 38.32,24.3048911 39.0512743,24.3048911 C39.6351794,24.3048911 41.5130668,23.5922067 43.028117,21.5987127 C43.0183615,21.3164346 43.0135764,21.0303779 43.0135764,20.7429536 C43.0135764,19.1808945 43.1245637,17.916692 43.4220152,16.9870717 C43.7194667,16.0200506 44.9470785,15.0907004 45.7654414,15.0907004 C46.1749603,15.0907004 46.4724118,15.3136203 46.4724118,15.76 C46.4724118,15.9087932 46.435011,16.0947173 46.3603443,16.2803713 C45.8025722,17.916692 45.5051207,19.4417553 45.5051207,20.9665485 C45.5051207,21.8217722 45.6907747,23.1977722 45.8772388,23.9043376 C45.9146397,24.0529958 45.9508253,24.2020591 46.1002937,24.2020591 C46.3603443,24.2020591 48.1084624,22.4910717 49.37253,20.4085063 C48.2569857,19.7020759 47.6242768,18.4003376 47.6242768,16.8008776 C47.6242768,14.1236793 49.2242768,12.7474093 50.7856608,12.7474093 C52.0132726,12.7474093 53.1290869,13.6400338 53.1290869,15.4251477 C53.1290869,16.540692 52.6820321,17.8051646 52.0508084,19.0327764 C52.0508084,19.0327764 52.3107241,19.0696371 52.4218464,19.0696371 C53.3891376,19.0696371 54.1328338,18.6232574 54.5423527,18.1400169 C54.7284382,17.9305335 54.8999916,17.7649105 55.0660711,17.6702563 C56.3113181,16.1719071 58.1367417,15.0907139 60.2778599,15.0907139 C62.1006447,15.0907139 63.6741806,15.7972793 63.8565941,17.2845367 C64.0897755,19.180908 62.4626363,19.5532962 61.9048641,19.5532962 C61.346957,19.5532962 60.5098262,19.4043679 60.451362,18.9207224 C60.3916827,18.4374819 61.6132186,18.6978025 61.4721215,17.5448574 C61.3813873,16.8008911 60.6005603,16.5039797 59.856189,16.5039797 C57.3645097,16.5039797 55.6517671,19.8136169 55.9805435,22.4910852 C56.1127291,23.5693637 56.6121722,24.6110515 57.5794633,24.6110515 C58.3600203,24.6110515 59.5251173,23.4952371 59.9561046,21.8586464 C60.233438,20.7803679 61.289438,19.9995409 62.0713451,19.9995409 C62.4426532,19.9995409 62.7633283,20.1851949 62.8176068,20.6315747 C62.8460962,20.8550346 62.7561722,21.3381401 62.3386869,23.0862582 C62.1691004,23.8296844 62.1358852,24.4621232 62.1994802,24.9826295 C62.3316658,26.060908 62.8278684,26.7677435 63.2868051,27.1767224 C63.4542312,27.3255156 63.5510414,27.5115747 63.5652186,27.6229671 C63.6016743,27.9206886 63.3734886,28.1808743 63.0013705,28.1808743 C62.889303,28.1808743 62.7411848,28.1808743 62.6200709,28.1066127 C60.7023662,27.3255156 59.9096574,26.0243173 59.6847122,24.7964354 C58.9442565,25.7265958 57.9658937,26.2471021 56.9621468,26.2471021 C55.2514295,26.2471021 53.5808135,24.7598447 53.3437165,22.8253975 C53.2460615,22.0309856 53.3424282,21.1779123 53.6038972,20.3387857 C52.9094316,20.7661506 52.1615624,21.0032743 51.4927662,21.0032743 C51.2689013,21.0032743 51.0832473,21.0032743 50.8603274,20.9665485 C49.1868759,23.3831561 47.4386228,25.0572827 46.1002937,25.8007089 C45.5422515,26.0984304 45.0217451,26.2470886 44.649627,26.2470886 C44.3521755,26.2470886 44.0173232,26.173097 43.8688,25.9122363 C43.5282394,25.3376273 43.2973265,24.4215972 43.1621294,23.3456401 C41.4005693,25.2680353 38.9294353,26.2421738 37.7701941,26.2421738 C36.4315949,26.2421738 35.6992405,25.424081 35.548962,24.1967392 C35.4985992,23.7877603 35.5127764,23.3041148 35.5985148,22.7834734 C36.0412489,20.0314734 37.0580928,18.3210262 36.9946329,17.8001148 C36.9764051,17.6514565 36.892557,17.5770599 36.7807595,17.5770599 C35.9252658,17.5770599 32.9202363,20.6637772 32.46427,22.7089418 L32.1082194,24.3458025 C31.8771983,25.4982076 30.7416709,26.2421738 29.9608439,26.2421738 C29.5887257,26.2421738 29.3057215,26.0559797 29.2553586,25.6468658 C29.2371308,25.4982076 29.2517131,25.3125536 29.2987004,25.0892287 C29.2987004,25.0892287 29.3634127,24.7565782 29.4664247,24.2269047 C27.8465074,25.4324501 26.0986352,26.2471291 25.2804456,26.2471291 C24.1646312,26.2471291 23.5338127,25.6519561 23.3129181,24.7597367 C22.576108,25.7266228 21.5989603,26.2471291 20.5575426,26.2471291 C19.2289207,26.2471291 17.9499862,25.3719791 17.3337284,24.0751734 C16.4574569,25.0548929 15.4190563,26.0124529 14.1788759,26.8048878 C12.3494751,27.9578329 10.307011,28.8874532 7.88959325,28.8874532 C5.65836962,28.8874532 3.76388861,27.6975122 2.71585485,26.7307612 C1.16176203,25.2803646 0.339213502,23.1231325 0.0971206751,21.1519595 C-0.665478481,14.9417992 3.13198987,6.7974616 9.01539916,3.22709873 C10.3653401,2.40900591 11.8769013,2.000027 13.2530363,2.000027 C16.0794329,2.000027 18.1891376,4.01427173 18.4842937,6.41967257 C18.7504203,8.58784135 17.8792641,10.4601789 15.4660321,11.6736135 C14.2319392,12.2940354 13.622184,12.2648709 13.4299139,11.9691747 C13.3012388,11.7713688 13.3734751,11.4375966 13.622184,11.2307443 C15.8917536,9.34152911 15.9352304,7.792027 15.6673485,5.60711561 C15.4942515,4.20154599 14.5657114,3.3017654 13.5244287,3.3017654 C9.06184641,3.3017654 2.66225148,13.2684827 3.55258059,20.5200608 C3.89958481,23.3465924 5.64014177,26.6186937 9.21050464,26.6186937 C10.4001755,26.6186937 11.6607325,26.2843814 12.7822177,25.7266093 C14.7401287,24.7302608 15.8464134,23.9417691 16.9595808,22.6517302 Z M49.2242768,15.4251477 C49.2242768,16.4665654 49.7446481,17.5448439 50.4136776,18.2514093 C50.6746734,17.5448439 50.8229266,16.8384135 50.8229266,16.1315781 C50.8229266,14.7929789 50.3025553,14.1978059 49.8930363,14.1978059 C49.4099308,14.1978059 49.2242768,14.8671055 49.2242768,15.4251477 Z" id="path-1"></path>
    </defs>
    <g id="Landing-page" stroke="none" stroke-width="1" fill="none" fill-rule="evenodd">
        <g id="Logo/Text/Turquoise-text-logo" transform="translate(0.000000, -2.000000)">
            <mask id="mask-2" fill="white">
                <use xlink:href="#path-1"></use>
            </mask>
            <use id="Shape" fill="#0E1318" fill-rule="evenodd" xlink:href="#path-1"></use>
            <g id="_/Color/Canva-brand/colorCanvaBrand" mask="url(#mask-2)" fill="#00C4CC" fill-rule="evenodd">
                <rect id="Rectangle" x="0" y="0" width="64" height="32"></rect>
            </g>
        </g>
    </g>
</svg>
